<svg width="1390" height="264" viewBox="0 0 1390 264" fill="none" xmlns="http://www.w3.org/2000/svg">
                            <path d="M865.3 58.3001H858.3L835 9.80009L839.6 9.6001V64.1001H830.4V5.2001H841.8L864.1 52.0001H859.7L882 5.2001H893.1V64.1001H883.9V9.6001L888.5 9.80009L865.3 58.3001ZM941.4 64.1001H932.9V56.0001L932.5 54.3001V38.9001C932.5 35.8001 931.5 33.4001 929.5 31.7001C927.5 29.9001 924.8 29.1001 921.4 29.1001C918 29.1001 916.6 29.6001 914.5 30.6001C912.4 31.6001 910.6 33.0001 909.1 34.7001L903.8 28.9001C906 26.6001 908.7 24.9001 911.7 23.6001C914.7 22.3001 918.1 21.7001 921.7 21.7001C925.3 21.7001 929 22.4001 931.9 23.8001C934.9 25.1001 937.2 27.0001 938.8 29.6001C940.4 32.1001 941.3 35.1001 941.3 38.7001V64.2001L941.4 64.1001ZM918.3 65.4001C915.2 65.4001 912.4 64.8001 910 63.7001C907.6 62.5001 905.7 61.0001 904.4 59.0001C903.1 57.0001 902.4 54.7001 902.4 52.1001C902.4 49.5001 903.2 46.8001 904.9 44.9001C906.5 42.9001 908.8 41.3001 911.7 40.3001C914.7 39.2001 918.1 38.7001 921.9 38.7001H933.4V45.0001H922.7C919.5 45.0001 916.8 45.6001 914.8 46.7001C912.8 47.9001 911.8 49.6001 911.8 51.8001C911.8 54.0001 912.6 55.4001 914.1 56.7001C915.6 57.9001 917.6 58.4001 920.1 58.4001C922.6 58.4001 924.6 57.9001 926.6 56.9001C928.6 55.9001 930.1 54.6001 931.3 52.9001C932.5 51.1001 933.2 49.1001 933.4 46.9001L936.4 48.3001C936.4 51.6001 935.6 54.6001 934.1 57.3001C932.6 59.9001 930.4 61.9001 927.7 63.4001C925 64.8001 921.8 65.5001 918.3 65.5001V65.4001ZM948 57.9001L953.3 52.1001C955.2 54.0001 957.4 55.5001 959.9 56.6001C962.5 57.7001 965.2 58.2001 968 58.2001C970.8 58.2001 973.1 57.7001 974.8 56.6001C976.5 55.5001 977.4 54.1001 977.4 52.4001C977.4 50.7001 976.6 49.7001 975.1 48.9001C973.6 48.0001 971 47.3001 967.1 46.8001C961.1 45.9001 956.7 44.5001 953.9 42.7001C951.2 40.8001 949.9 38.1001 949.9 34.8001C949.9 31.5001 950.7 29.9001 952.2 27.9001C953.7 25.9001 955.8 24.4001 958.5 23.3001C961.1 22.2001 964.2 21.7001 967.6 21.7001C971 21.7001 975 22.4001 978.1 23.7001C981.2 25.0001 983.8 26.8001 986.1 29.1001L980.7 34.9001C979 33.0001 977.1 31.6001 974.9 30.5001C972.7 29.4001 970.3 28.9001 967.7 28.9001C965.1 28.9001 963 29.4001 961.4 30.5001C959.8 31.5001 959 32.8001 959 34.4001C959 36.0001 959.7 36.7001 961.1 37.4001C962.6 38.1001 965.2 38.6001 968.8 39.1001C974.8 40.0001 979.3 41.4001 982.1 43.5001C985 45.5001 986.4 48.3001 986.4 52.1001C986.4 55.9001 985.6 57.1001 984 59.2001C982.4 61.2001 980.2 62.8001 977.4 64.0001C974.6 65.1001 971.3 65.6001 967.6 65.6001C963.9 65.6001 959.9 64.9001 956.6 63.6001C953.3 62.2001 950.4 60.4001 948 58.0001V57.9001ZM1020 64.1001H1009.9C1006.4 64.1001 1003.8 63.2001 1002.1 61.5001C1000.3 59.7001 999.5 57.1001 999.5 53.7001V11.8001H1008.7V52.3001C1008.7 53.7001 1009 54.8001 1009.7 55.5001C1010.4 56.2001 1011.4 56.5001 1012.8 56.5001H1020V64.2001V64.1001ZM1019.4 30.5001H991.7V23.0001H1019.4V30.5001ZM1062.1 51.7001L1067.4 57.5001C1065.3 60.0001 1062.6 61.9001 1059.4 63.3001C1056.2 64.7001 1052.7 65.4001 1048.8 65.4001C1044.9 65.4001 1040.1 64.5001 1036.5 62.6001C1033 60.7001 1030.2 58.2001 1028.2 54.9001C1026.2 51.6001 1025.2 47.8001 1025.2 43.6001C1025.2 39.4001 1026.2 35.5001 1028.1 32.2001C1030 28.9001 1032.7 26.3001 1036 24.5001C1039.3 22.6001 1043.1 21.7001 1047.3 21.7001C1051.5 21.7001 1055 22.6001 1058.1 24.5001C1061.2 26.3001 1063.7 28.8001 1065.5 32.1001C1067.3 35.3001 1068.2 39.0001 1068.2 43.2001V43.7001H1059.1V42.8001C1059.1 40.1001 1058.6 37.7001 1057.5 35.6001C1056.5 33.5001 1055.1 31.9001 1053.4 30.8001C1051.6 29.6001 1049.6 29.1001 1047.2 29.1001C1044.8 29.1001 1042.5 29.7001 1040.6 30.9001C1038.7 32.1001 1037.3 33.7001 1036.2 35.8001C1035.2 37.9001 1034.6 40.4001 1034.6 43.4001C1034.6 46.4001 1035.2 48.9001 1036.4 51.1001C1037.7 53.3001 1039.4 55.0001 1041.5 56.2001C1043.7 57.4001 1046.2 57.9001 1049.1 57.9001C1054.3 57.9001 1058.6 55.8001 1062 51.6001L1062.1 51.7001ZM1068.2 46.5001H1031.7V40.2001H1066.9L1068.2 43.2001V46.4001V46.5001ZM1101.2 22.3001V30.9001H1099.2C1096.7 30.9001 1094.4 31.4001 1092.4 32.5001C1090.4 33.6001 1088.9 35.3001 1087.7 37.6001C1086.5 39.9001 1086 42.9001 1086 46.7001V64.2001H1076.8V23.1001H1085.9V36.4001H1084.7C1085.3 32.8001 1086.3 30.0001 1087.9 28.0001C1089.5 26.0001 1091.4 24.5001 1093.5 23.7001C1095.6 22.8001 1097.8 22.4001 1099.9 22.4001H1101.1L1101.2 22.3001ZM1122.3 54.5001L1128.9 48.1001C1130.4 50.0001 1132.1 51.6001 1134.2 53.0001C1136.3 54.4001 1138.5 55.4001 1140.9 56.1001C1143.3 56.8001 1145.8 57.2001 1148.5 57.2001C1151.2 57.2001 1153.8 56.8001 1155.9 56.0001C1158 55.2001 1159.7 54.1001 1160.9 52.7001C1162.1 51.3001 1162.7 49.6001 1162.7 47.8001C1162.7 46.0001 1161.5 43.3001 1159.2 41.8001C1157 40.3001 1153 39.1001 1147.3 38.3001C1142 37.5001 1137.7 36.4001 1134.4 35.0001C1131.1 33.6001 1128.7 31.8001 1127.2 29.6001C1125.7 27.4001 1125 24.8001 1125 21.9001C1125 19.0001 1126 15.3001 1127.9 12.7001C1129.9 10.0001 1132.6 7.90009 1136 6.40009C1139.5 4.90009 1143.4 4.1001 1147.9 4.1001C1152.4 4.1001 1157.6 5.1001 1161.6 7.1001C1165.6 9.1001 1169 11.7001 1171.9 15.0001L1165.5 21.4001C1163.4 18.6001 1160.8 16.4001 1157.9 14.8001C1155 13.2001 1151.8 12.3001 1148 12.3001C1144.2 12.3001 1140.9 13.1001 1138.5 14.8001C1136 16.4001 1134.8 18.6001 1134.8 21.4001C1134.8 24.2001 1135.3 24.1001 1136.2 25.2001C1137.1 26.2001 1138.7 27.0001 1140.8 27.8001C1143 28.5001 1145.9 29.1001 1149.5 29.7001C1154.9 30.5001 1159.3 31.7001 1162.7 33.2001C1166.1 34.7001 1168.6 36.7001 1170.2 39.0001C1171.8 41.4001 1172.6 44.2001 1172.6 47.5001C1172.6 50.8001 1171.6 54.3001 1169.6 57.0001C1167.6 59.7001 1164.7 61.8001 1161.1 63.3001C1157.5 64.8001 1153.3 65.5001 1148.6 65.5001C1143.9 65.5001 1138.1 64.5001 1133.8 62.5001C1129.5 60.5001 1125.8 57.9001 1122.7 54.5001H1122.3ZM1213.9 51.5001L1219.8 57.3001C1217.8 59.8001 1215.3 61.8001 1212.3 63.3001C1209.3 64.7001 1205.9 65.4001 1202.1 65.4001C1198.3 65.4001 1194.1 64.5001 1190.7 62.6001C1187.4 60.7001 1184.8 58.1001 1182.9 54.9001C1181 51.6001 1180 47.8001 1180 43.5001C1180 39.2001 1181 35.5001 1182.9 32.3001C1184.8 29.0001 1187.5 26.4001 1190.8 24.6001C1194.2 22.7001 1198 21.7001 1202.3 21.7001C1206.6 21.7001 1209.4 22.4001 1212.3 23.8001C1215.3 25.2001 1217.8 27.2001 1219.8 29.8001L1213.9 35.6001C1212.7 33.7001 1211.2 32.3001 1209.3 31.2001C1207.5 30.0001 1205.3 29.5001 1202.7 29.5001C1200.1 29.5001 1197.9 30.1001 1195.9 31.3001C1193.9 32.5001 1192.4 34.2001 1191.3 36.3001C1190.2 38.4001 1189.7 40.8001 1189.7 43.5001C1189.7 46.2001 1190.2 48.7001 1191.3 50.8001C1192.4 52.9001 1193.9 54.6001 1195.9 55.8001C1197.9 57.0001 1200.1 57.6001 1202.7 57.6001C1205.3 57.6001 1207.5 57.0001 1209.3 55.9001C1211.2 54.7001 1212.7 53.3001 1213.9 51.5001ZM1266.9 64.1001H1257.7V40.4001C1257.7 36.7001 1256.9 34.0001 1255.2 32.2001C1253.6 30.4001 1251.3 29.5001 1248.5 29.5001C1245.7 29.5001 1244.6 30.0001 1242.7 31.1001C1240.9 32.1001 1239.5 33.8001 1238.4 36.0001C1237.3 38.3001 1236.8 41.2001 1236.8 44.7001V64.1001H1227.6V4.80009H1236.8V35.7001H1235.6C1236.1 32.1001 1237.2 29.3001 1238.7 27.3001C1240.3 25.3001 1242.2 23.8001 1244.3 23.0001C1246.4 22.1001 1248.6 21.7001 1250.9 21.7001C1255.8 21.7001 1259.7 23.2001 1262.6 26.2001C1265.5 29.2001 1266.9 33.6001 1266.9 39.4001V64.1001ZM1297.4 65.4001C1293.1 65.4001 1289.2 64.5001 1285.8 62.6001C1282.5 60.7001 1279.8 58.2001 1277.9 54.9001C1276 51.6001 1275 47.8001 1275 43.5001C1275 39.2001 1276 35.5001 1277.9 32.2001C1279.8 28.9001 1282.5 26.3001 1285.8 24.5001C1289.2 22.6001 1293.1 21.7001 1297.4 21.7001C1301.7 21.7001 1305.7 22.6001 1309 24.5001C1312.4 26.4001 1315 28.9001 1316.9 32.2001C1318.8 35.5001 1319.8 39.3001 1319.8 43.5001C1319.8 47.7001 1318.8 51.6001 1316.9 54.9001C1315 58.2001 1312.4 60.8001 1309 62.6001C1305.7 64.5001 1301.8 65.4001 1297.4 65.4001ZM1297.4 57.7001C1300 57.7001 1302.2 57.1001 1304.2 55.9001C1306.1 54.7001 1307.6 53.0001 1308.6 51.0001C1309.7 48.9001 1310.2 46.4001 1310.2 43.6001C1310.2 40.8001 1309.7 38.4001 1308.6 36.4001C1307.6 34.3001 1306.1 32.6001 1304.2 31.4001C1302.3 30.2001 1300 29.6001 1297.4 29.6001C1294.8 29.6001 1292.7 30.2001 1290.7 31.4001C1288.8 32.6001 1287.3 34.3001 1286.2 36.4001C1285.2 38.5001 1284.6 40.9001 1284.6 43.6001C1284.6 46.3001 1285.1 48.9001 1286.2 51.0001C1287.3 53.1001 1288.8 54.7001 1290.7 55.9001C1292.6 57.1001 1294.8 57.7001 1297.4 57.7001ZM1349.1 65.4001C1344.8 65.4001 1340.9 64.5001 1337.5 62.6001C1334.2 60.7001 1331.5 58.2001 1329.6 54.9001C1327.7 51.6001 1326.7 47.8001 1326.7 43.5001C1326.7 39.2001 1327.7 35.5001 1329.6 32.2001C1331.5 28.9001 1334.2 26.3001 1337.5 24.5001C1340.9 22.6001 1344.8 21.7001 1349.1 21.7001C1353.4 21.7001 1357.4 22.6001 1360.7 24.5001C1364.1 26.4001 1366.7 28.9001 1368.6 32.2001C1370.5 35.5001 1371.5 39.3001 1371.5 43.5001C1371.5 47.7001 1370.5 51.6001 1368.6 54.9001C1366.7 58.2001 1364.1 60.8001 1360.7 62.6001C1357.4 64.5001 1353.5 65.4001 1349.1 65.4001ZM1349.1 57.7001C1351.7 57.7001 1353.9 57.1001 1355.9 55.9001C1357.8 54.7001 1359.3 53.0001 1360.3 51.0001C1361.4 48.9001 1361.9 46.4001 1361.9 43.6001C1361.9 40.8001 1361.4 38.4001 1360.3 36.4001C1359.3 34.3001 1357.8 32.6001 1355.9 31.4001C1354 30.2001 1351.7 29.6001 1349.1 29.6001C1346.5 29.6001 1344.4 30.2001 1342.4 31.4001C1340.5 32.6001 1339 34.3001 1337.9 36.4001C1336.9 38.5001 1336.3 40.9001 1336.3 43.6001C1336.3 46.3001 1336.8 48.9001 1337.9 51.0001C1339 53.1001 1340.5 54.7001 1342.4 55.9001C1344.3 57.1001 1346.5 57.7001 1349.1 57.7001ZM1389.2 64.1001H1380V4.80009H1389.2V64.1001ZM840.1 155.1H830.6V96.2001H840.1V155.1ZM890.6 155.1H881.4V131.4C881.4 127.7 880.6 125 878.9 123.2C877.3 121.4 875 120.5 872.2 120.5C869.4 120.5 868.3 121 866.4 122.1C864.6 123.1 863.2 124.8 862.1 127C861 129.3 860.5 132.2 860.5 135.7V155.1H851.3V114H860.4V126.7H859.2C859.7 123.1 860.8 120.3 862.4 118.3C864 116.3 865.9 114.8 868 114C870.1 113.1 872.3 112.7 874.6 112.7C879.5 112.7 883.4 114.2 886.3 117.2C889.2 120.2 890.6 124.6 890.6 130.4V155.1ZM897.3 148.9L902.6 143.1C904.5 145 906.7 146.5 909.2 147.6C911.8 148.7 914.5 149.2 917.3 149.2C920.1 149.2 922.4 148.7 924.1 147.6C925.8 146.5 926.7 145.1 926.7 143.4C926.7 141.7 925.9 140.7 924.4 139.9C922.9 139 920.3 138.3 916.4 137.8C910.4 136.9 906 135.5 903.2 133.7C900.5 131.8 899.2 129.1 899.2 125.8C899.2 122.5 900 120.9 901.5 118.9C903 116.9 905.1 115.4 907.8 114.3C910.4 113.2 913.5 112.7 916.9 112.7C920.3 112.7 924.3 113.4 927.4 114.7C930.5 116 933.1 117.8 935.4 120.1L930.1 125.9C928.4 124 926.4 122.6 924.3 121.5C922.1 120.4 919.7 119.9 917.1 119.9C914.5 119.9 912.4 120.4 910.8 121.5C909.2 122.5 908.4 123.8 908.4 125.4C908.4 127 909.1 127.7 910.5 128.4C912 129.1 914.6 129.6 918.2 130.1C924.2 131 928.7 132.4 931.5 134.5C934.4 136.5 935.8 139.3 935.8 143.1C935.8 146.9 935 148.1 933.4 150.2C931.8 152.2 929.6 153.8 926.8 155C924 156.1 920.7 156.6 917 156.6C913.3 156.6 909.3 155.9 906 154.6C902.7 153.2 899.8 151.4 897.4 149L897.3 148.9ZM969.3 155.1H959.2C955.7 155.1 953.1 154.2 951.4 152.5C949.6 150.7 948.8 148.1 948.8 144.7V102.8H958V143.3C958 144.7 958.3 145.8 959 146.5C959.7 147.2 960.7 147.5 962.1 147.5H969.3V155.2V155.1ZM968.7 121.5H941V114H968.7V121.5ZM986.5 155.1H977.3V114H986.5V155.1ZM981.9 105.6C980.3 105.6 978.9 105.1 977.8 104C976.6 102.9 976.1 101.6 976.1 100C976.1 98.4001 976.7 97.0001 977.8 95.9001C979 94.8001 980.3 94.3001 981.9 94.3001C983.5 94.3001 984.9 94.8001 986 95.9001C987.2 97.0001 987.7 98.3001 987.7 99.9001C987.7 101.5 987.1 102.8 986 103.9C984.9 105 983.5 105.5 981.9 105.5V105.6ZM1022.6 155.1H1012.5C1009 155.1 1006.4 154.2 1004.7 152.5C1002.9 150.7 1002.1 148.1 1002.1 144.7V102.8H1011.3V143.3C1011.3 144.7 1011.6 145.8 1012.3 146.5C1013 147.2 1014 147.5 1015.4 147.5H1022.6V155.2V155.1ZM1022 121.5H994.3V114H1022V121.5ZM1069.1 155.1H1060V144.9V114H1069.2V155.1H1069.1ZM1060.5 137.8L1062.4 139.4C1062.6 142.7 1062 145.7 1060.6 148.3C1059.2 150.9 1057.3 152.9 1054.8 154.4C1052.3 155.8 1049.4 156.5 1046.1 156.5C1041.3 156.5 1037.4 155 1034.5 152.1C1031.6 149.2 1030.1 145 1030.1 139.5V114.1H1039.3V138.6C1039.3 141.9 1040.1 144.4 1041.8 146.2C1043.4 147.9 1045.7 148.8 1048.6 148.8C1051.5 148.8 1052.5 148.3 1054.2 147.4C1056 146.5 1057.4 145.2 1058.6 143.5C1059.8 141.9 1060.4 140 1060.7 137.8H1060.5ZM1105.1 155.1H1095C1091.5 155.1 1088.9 154.2 1087.2 152.5C1085.4 150.7 1084.6 148.1 1084.6 144.7V102.8H1093.8V143.3C1093.8 144.7 1094.1 145.8 1094.8 146.5C1095.5 147.2 1096.5 147.5 1097.9 147.5H1105.1V155.2V155.1ZM1104.5 121.5H1076.8V114H1104.5V121.5ZM1147.2 142.7L1152.5 148.5C1150.4 151 1147.7 152.9 1144.5 154.3C1141.3 155.7 1137.8 156.4 1133.9 156.4C1130 156.4 1125.2 155.5 1121.6 153.6C1118.1 151.7 1115.3 149.2 1113.3 145.9C1111.3 142.6 1110.3 138.8 1110.3 134.6C1110.3 130.4 1111.3 126.5 1113.2 123.2C1115.1 119.9 1117.8 117.3 1121.1 115.5C1124.4 113.6 1128.2 112.7 1132.4 112.7C1136.6 112.7 1140.1 113.6 1143.2 115.5C1146.3 117.3 1148.8 119.8 1150.6 123.1C1152.4 126.3 1153.3 130 1153.3 134.2V134.7H1144.2V133.8C1144.2 131.1 1143.7 128.7 1142.6 126.6C1141.6 124.5 1140.2 122.9 1138.5 121.8C1136.7 120.6 1134.7 120.1 1132.3 120.1C1129.9 120.1 1127.6 120.7 1125.7 121.9C1123.8 123.1 1122.4 124.7 1121.3 126.8C1120.3 128.9 1119.7 131.4 1119.7 134.4C1119.7 137.4 1120.3 139.9 1121.5 142.1C1122.8 144.3 1124.5 146 1126.6 147.2C1128.8 148.4 1131.3 148.9 1134.2 148.9C1139.4 148.9 1143.7 146.8 1147.1 142.6L1147.2 142.7ZM1153.3 137.5H1116.8V131.2H1152L1153.3 134.2V137.4V137.5ZM1209.9 133.3C1209.9 144.8 1201.4 156.3 1190.1 156.3C1178.8 156.3 1175.5 149.4 1175.5 139.6C1175.5 129.8 1184.1 116.5 1195.4 116.5C1206.7 116.5 1209.9 123.4 1209.9 133.3ZM1201 129.4C1201 124.5 1199.2 120.5 1195.5 120.5C1191.8 120.5 1186.9 128.9 1185.6 134.9C1184.9 137.8 1184.5 140.7 1184.5 143.2C1184.5 148.1 1186.4 152.5 1190 152.5C1193.6 152.5 1198.6 143.8 1200 137.7C1200.6 134.9 1201 131.9 1201 129.4ZM1251.3 105.5C1251.3 108.4 1249.2 110.9 1246.3 110.9C1243.4 110.9 1240.6 107.3 1240 103L1234.8 103.9C1233.5 107.5 1232.2 113.7 1231.5 118.2H1241.4L1241.7 122.9H1230.7L1225.8 147.4C1223.7 158.1 1220.5 167 1216.6 171C1213.8 174 1210 175.3 1206.3 175.3C1202.6 175.3 1198.2 172.6 1198.2 168.7C1198.2 164.8 1200.3 163.7 1203 163.7C1205.7 163.7 1208.7 166.8 1209.1 170.5L1213.5 169.2C1214.5 166.6 1215.7 160.9 1216.7 155.4L1221.6 123.5L1214.4 122.9L1214.6 120.1L1222.6 117.5C1223.7 112.2 1225.8 107 1229.3 103.5C1232.8 100 1237 98.0001 1242.2 98.0001C1247.4 98.0001 1251.3 101.3 1251.3 105.4V105.5ZM855.4 246.1H845.9V194.6H855.4V246.1ZM874.2 195.4H827.1V187.3H874.2V195.4ZM907.3 233.7L912.6 239.5C910.5 242 907.8 243.9 904.6 245.3C901.4 246.7 897.9 247.4 894 247.4C890.1 247.4 885.3 246.5 881.7 244.6C878.2 242.7 875.4 240.2 873.4 236.9C871.4 233.6 870.4 229.8 870.4 225.6C870.4 221.4 871.4 217.5 873.3 214.2C875.2 210.9 877.9 208.3 881.2 206.5C884.5 204.6 888.3 203.7 892.5 203.7C896.7 203.7 900.2 204.6 903.3 206.5C906.4 208.3 908.9 210.8 910.7 214.1C912.5 217.3 913.4 221 913.4 225.2V225.7H904.3V224.8C904.3 222.1 903.8 219.7 902.7 217.6C901.7 215.5 900.3 213.9 898.6 212.8C896.8 211.6 894.8 211.1 892.4 211.1C890 211.1 887.7 211.7 885.8 212.9C883.9 214.1 882.5 215.7 881.4 217.8C880.4 219.9 879.8 222.4 879.8 225.4C879.8 228.4 880.4 230.9 881.6 233.1C882.9 235.3 884.6 237 886.7 238.2C888.9 239.4 891.4 239.9 894.3 239.9C899.5 239.9 903.8 237.8 907.2 233.6L907.3 233.7ZM913.4 228.5H876.8V222.2H912L913.3 225.2V228.4L913.4 228.5ZM954.2 233.6L960.1 239.4C958.1 241.9 955.6 243.9 952.6 245.4C949.6 246.8 946.2 247.5 942.4 247.5C938.6 247.5 934.4 246.6 931 244.7C927.7 242.8 925.1 240.2 923.2 237C921.3 233.7 920.3 229.9 920.3 225.6C920.3 221.3 921.3 217.6 923.2 214.4C925.1 211.1 927.8 208.5 931.1 206.7C934.5 204.8 938.3 203.8 942.6 203.8C946.9 203.8 949.6 204.5 952.6 205.9C955.6 207.3 958.1 209.3 960.1 211.9L954.2 217.7C953 215.8 951.5 214.4 949.6 213.3C947.8 212.1 945.6 211.6 943 211.6C940.4 211.6 938.2 212.2 936.2 213.4C934.2 214.6 932.7 216.3 931.6 218.4C930.5 220.5 930 222.9 930 225.6C930 228.3 930.5 230.8 931.6 232.9C932.7 235 934.2 236.7 936.2 237.9C938.2 239.1 940.4 239.7 943 239.7C945.6 239.7 947.8 239.1 949.6 238C951.5 236.8 953 235.4 954.2 233.6ZM1007.3 246.1H998.1V222.4C998.1 218.7 997.3 216 995.6 214.2C994 212.4 991.7 211.5 988.9 211.5C986.1 211.5 985 212 983.1 213.1C981.3 214.1 979.9 215.8 978.8 218C977.7 220.2 977.2 223.2 977.2 226.7V246.1H968V186.8H977.2V217.7H976C976.5 214.1 977.6 211.3 979.1 209.3C980.7 207.3 982.6 205.8 984.7 205C986.8 204.1 989 203.7 991.3 203.7C996.2 203.7 1000.1 205.2 1003 208.2C1005.9 211.2 1007.3 215.6 1007.3 221.4V246.1ZM1056.2 246.1H1047V222.4C1047 218.7 1046.2 216 1044.5 214.2C1042.9 212.4 1040.6 211.5 1037.8 211.5C1035 211.5 1033.9 212 1032 213.1C1030.2 214.1 1028.8 215.8 1027.7 218C1026.6 220.2 1026.1 223.2 1026.1 226.7V246.1H1016.9V205H1026V217.7H1024.8C1025.3 214.1 1026.4 211.3 1028 209.3C1029.6 207.3 1031.5 205.8 1033.6 205C1035.7 204.1 1037.9 203.7 1040.2 203.7C1045.1 203.7 1049 205.2 1051.9 208.2C1054.8 211.2 1056.2 215.6 1056.2 221.4V246.1ZM1086.7 247.5C1082.4 247.5 1078.5 246.6 1075.1 244.7C1071.8 242.8 1069.1 240.3 1067.2 237C1065.3 233.7 1064.3 229.9 1064.3 225.6C1064.3 221.3 1065.3 217.6 1067.2 214.3C1069.1 211 1071.8 208.4 1075.1 206.6C1078.5 204.7 1082.4 203.8 1086.7 203.8C1091 203.8 1095 204.7 1098.3 206.6C1101.7 208.5 1104.3 211 1106.2 214.3C1108.1 217.6 1109.1 221.4 1109.1 225.6C1109.1 229.8 1108.1 233.7 1106.2 237C1104.3 240.3 1101.7 242.9 1098.3 244.7C1095 246.6 1091.1 247.5 1086.7 247.5ZM1086.7 239.7C1089.3 239.7 1091.5 239.1 1093.5 237.9C1095.4 236.7 1096.9 235 1097.9 233C1099 230.9 1099.5 228.4 1099.5 225.6C1099.5 222.8 1099 220.4 1097.9 218.4C1096.9 216.3 1095.4 214.6 1093.5 213.4C1091.6 212.2 1089.3 211.6 1086.7 211.6C1084.1 211.6 1082 212.2 1080 213.4C1078.1 214.6 1076.6 216.3 1075.5 218.4C1074.5 220.5 1073.9 222.9 1073.9 225.6C1073.9 228.3 1074.4 230.9 1075.5 233C1076.6 235.1 1078.1 236.7 1080 237.9C1081.9 239.1 1084.1 239.7 1086.7 239.7ZM1126.8 246.1H1117.6V186.8H1126.8V246.1ZM1157.9 247.5C1153.6 247.5 1149.7 246.6 1146.3 244.7C1143 242.8 1140.3 240.3 1138.4 237C1136.5 233.7 1135.5 229.9 1135.5 225.6C1135.5 221.3 1136.5 217.6 1138.4 214.3C1140.3 211 1143 208.4 1146.3 206.6C1149.7 204.7 1153.6 203.8 1157.9 203.8C1162.2 203.8 1166.2 204.7 1169.5 206.6C1172.9 208.5 1175.5 211 1177.4 214.3C1179.3 217.6 1180.3 221.4 1180.3 225.6C1180.3 229.8 1179.3 233.7 1177.4 237C1175.5 240.3 1172.9 242.9 1169.5 244.7C1166.2 246.6 1162.3 247.5 1157.9 247.5ZM1157.9 239.7C1160.5 239.7 1162.7 239.1 1164.7 237.9C1166.6 236.7 1168.1 235 1169.1 233C1170.2 230.9 1170.7 228.4 1170.7 225.6C1170.7 222.8 1170.2 220.4 1169.1 218.4C1168.1 216.3 1166.6 214.6 1164.7 213.4C1162.8 212.2 1160.5 211.6 1157.9 211.6C1155.3 211.6 1153.2 212.2 1151.2 213.4C1149.3 214.6 1147.8 216.3 1146.7 218.4C1145.7 220.5 1145.1 222.9 1145.1 225.6C1145.1 228.3 1145.6 230.9 1146.7 233C1147.8 235.1 1149.3 236.7 1151.2 237.9C1153.1 239.1 1155.3 239.7 1157.9 239.7ZM1231.7 241.6C1231.7 245.9 1230.7 249.7 1228.7 253C1226.7 256.3 1224 258.8 1220.6 260.7C1217.2 262.6 1213.3 263.5 1208.8 263.5C1204.3 263.5 1201.3 262.8 1198 261.5C1194.7 260.2 1192 258.5 1189.9 256.2L1195.3 250C1196.9 251.8 1198.8 253.2 1200.9 254.2C1203.1 255.2 1205.6 255.8 1208.5 255.8C1211.4 255.8 1213.8 255.2 1215.9 254.1C1218 252.9 1219.7 251.4 1220.8 249.3C1222 247.3 1222.5 244.9 1222.5 242.1V226.3C1222.5 223.1 1221.9 220.4 1220.7 218.2C1219.5 216 1217.9 214.4 1216 213.3C1214.1 212.1 1211.9 211.6 1209.6 211.6C1207.3 211.6 1204.9 212.2 1202.9 213.4C1201 214.6 1199.5 216.3 1198.4 218.3C1197.4 220.3 1196.8 222.6 1196.8 225.2C1196.8 227.8 1197.4 230.2 1198.4 232.2C1199.5 234.2 1201 235.8 1203 237C1205 238.2 1207.3 238.7 1209.9 238.7C1212.5 238.7 1214.2 238.3 1216.1 237.4C1218 236.5 1219.6 235.2 1220.8 233.5C1222.1 231.9 1222.8 230 1223.1 227.8L1225.1 229.3C1225.4 232.5 1224.8 235.5 1223.4 238.1C1222 240.7 1220 242.7 1217.3 244.3C1214.7 245.8 1211.6 246.5 1208 246.5C1204.4 246.5 1200.6 245.6 1197.4 243.9C1194.3 242.1 1191.8 239.6 1189.9 236.4C1188.1 233.2 1187.2 229.5 1187.2 225.3C1187.2 221.1 1188.1 217.4 1190 214.2C1191.9 211 1194.4 208.4 1197.5 206.6C1200.6 204.7 1204.1 203.8 1207.9 203.8C1211.7 203.8 1213.4 204.3 1215.7 205.4C1218.1 206.5 1220 208.1 1221.5 210.2C1223.1 212.3 1224.1 214.8 1224.5 217.8H1222.5V205.1H1231.6V241.6H1231.7ZM1273.1 205.1H1282.4L1262.4 251.9C1261 255.2 1259.2 257.8 1257.1 259.6C1254.9 261.4 1251.9 262.2 1248.1 262.2H1243.2V254.5H1247.7C1249.4 254.5 1250.8 254.1 1251.9 253.3C1253.1 252.5 1254 251.4 1254.6 249.8L1256 246.3L1238.3 205.1H1247.9L1262.1 241.1H1258.9L1273.1 205.1Z" fill="#f2efe9"/>
                            <path d="M148 220.5H114.3L20.2 23.9L43.8 23.6V246.5H0V5.39999H52.6L140.6 190.2H122.1L210.1 5.39999H262V246.5H217.5V23.6L242.1 23.9L148 220.5ZM275.1 207L305.8 176.3C311.6 183.7 318.7 190.1 327 195.5C335.3 200.9 344.3 205.1 354 208C363.7 210.9 373.6 212.4 383.7 212.4C393.8 212.4 404.2 211.1 412 208.4C420.1 205.7 426.3 201.9 430.5 196.9C435 191.7 437.2 185.8 437.2 179C437.2 172.2 432.8 162.8 424.1 157.4C415.6 151.8 400.2 147.3 377.9 143.9C356.1 140.8 338.3 136.1 324.6 130.1C311.1 124 301.1 116.4 294.6 107.2C288.3 98 285.2 87.1 285.2 74.5C285.2 61.9 289.2 47 297.3 35.7C305.6 24.5 317 15.7 331.4 9.39999C345.8 3.09999 362.2 0 380.6 0C399 0 421.4 4 438.3 12.1C455.2 20.2 469.4 31.1 481.1 44.8L450.8 75.1C442.3 64.1 432 55.3 420.1 48.8C408.4 42.3 395.4 39 381 39C366.6 39 354.5 42 345.3 48.1C336.1 53.9 331.5 61.8 331.5 71.7C331.5 81.6 333.3 81.4 336.9 85.2C340.5 89 346.5 92.3 354.8 95C363.3 97.5 374.8 99.8 389.2 102.1C411 105.5 428.8 110.4 442.5 116.9C456.4 123.2 466.8 131.3 473.5 141.2C480.2 151.1 483.6 162.9 483.6 176.6C483.6 190.3 479.3 205.1 470.8 216.4C462.3 227.6 450.5 236.4 435.4 242.7C420.3 248.8 402.9 251.8 383.1 251.8C363.3 251.8 339.3 247.8 321.1 239.7C302.9 231.4 287.6 220.5 275.2 207H275.1ZM548.9 246.4H503.4V5.39999H548.9V246.5V246.4ZM683.9 246.4H638.4V40.7H683.9V246.4ZM759.4 44.1H562.8V5.3H759.4V44.1Z" fill="#f2efe9"/>
                            </svg>